<svg xmlns="http://www.w3.org/2000/svg" width="30.754" height="25.585" viewBox="0 0 30.754 25.585">
  <g id="back-arrow1" transform="translate(-4.9 -16.579)" opacity="0.8">
    <path id="Path_349" data-name="Path 349" d="M9.065,28.088H34.518a1.274,1.274,0,0,1,0,2.534,5.612,5.612,0,0,1-.7.029H8.832a5.592,5.592,0,0,0,.553.582c2.941,2.8,5.883,5.592,8.824,8.358.874.815,1.019,1.573.408,2.184-.582.612-1.311.5-2.155-.32-3.495-3.349-7.019-6.669-10.513-10.018a2.592,2.592,0,0,1,0-4.165q5.329-5.024,10.63-10.077a5.062,5.062,0,0,1,.437-.379,1.262,1.262,0,0,1,1.747,1.776,4.712,4.712,0,0,1-.524.553c-2.912,2.8-5.854,5.562-8.766,8.329l-.524.437A.609.609,0,0,1,9.065,28.088Z" fill="#fff"/>
  </g>
</svg>
