<svg xmlns="http://www.w3.org/2000/svg" width="22.337" height="22.4" viewBox="0 0 22.337 22.4">
  <g id="notification1" transform="translate(-6.3 -7.6)">
    <path id="Path_7454" data-name="Path 7454" d="M32.909,18.887v2.089a2.918,2.918,0,0,0,.731,1.984,4.155,4.155,0,0,1,1.044,2.872v.757a1,1,0,0,1-1.07,1.07H29.854c-.313,0-.444.052-.522.418A2.657,2.657,0,0,1,26.643,30.3a2.626,2.626,0,0,1-2.532-2.245c-.052-.313-.157-.365-.444-.365-1.227.026-2.454,0-3.681,0-.809,0-1.175-.392-1.2-1.2a4.99,4.99,0,0,1,.548-2.82,6.815,6.815,0,0,1,.5-.7,2.918,2.918,0,0,0,.731-1.984V17.137a6.15,6.15,0,0,1,3.968-6.083.429.429,0,0,0,.209-.313,7.32,7.32,0,0,0,0-.757,1.958,1.958,0,1,1,3.916,0,6.827,6.827,0,0,0,0,.731.6.6,0,0,0,.235.365,6.174,6.174,0,0,1,3.968,6.057C32.909,17.712,32.909,18.286,32.909,18.887Zm-.339,4.856a4.556,4.556,0,0,1-.992-3.316c.026-1.175.026-2.376,0-3.551a4.864,4.864,0,0,0-6.266-4.7,4.915,4.915,0,0,0-3.446,4.595c-.026,1.279-.026,2.585,0,3.864a4.489,4.489,0,0,1-.914,3.028v.078Zm.783,2.611v-.809c-.026-.5-.026-.5-.5-.5H20.612c-.078,0-.183-.026-.235,0-.078.052-.235.1-.235.183-.026.366,0,.731,0,1.1C24.528,26.353,28.914,26.353,33.353,26.353Zm-5.326,1.331H25.416a1.247,1.247,0,0,0,1.2,1.279A1.27,1.27,0,0,0,28.027,27.685Zm-1.958-17.6c0,.574,0,.574.5.574H26.7c.757,0,.757-.026.679-.757V9.827a.643.643,0,0,0-.627-.548.62.62,0,0,0-.627.522A.893.893,0,0,0,26.069,10.089Z" transform="translate(-9.221 -0.296)" fill="#fff"/>
    <path id="Path_7455" data-name="Path 7455" d="M6.3,14.473c.261-.757.5-1.514.809-2.245A10.987,10.987,0,0,1,10.033,8.26c.392-.339.731-.339,1.018-.052s.235.679-.131.992a10.139,10.139,0,0,0-3.237,5.43.657.657,0,0,1-.757.548A.729.729,0,0,1,6.3,14.473Z" transform="translate(0 -0.294)" fill="#fff"/>
    <path id="Path_7456" data-name="Path 7456" d="M73.881,7.6a4.244,4.244,0,0,1,.522.287,11.422,11.422,0,0,1,3.707,6.187.671.671,0,0,1-.522.809.645.645,0,0,1-.757-.548,10.153,10.153,0,0,0-1.07-2.767A10.433,10.433,0,0,0,73.62,8.931c-.261-.235-.47-.5-.261-.835C73.463,7.913,73.7,7.783,73.881,7.6Z" transform="translate(-49.489 0)" fill="#fff"/>
    <path id="Path_7457" data-name="Path 7457" d="M71.232,21.029a.751.751,0,0,1-.653.679.67.67,0,0,1-.7-.548l-.235-.94a7.285,7.285,0,0,0-2.01-3.133l-.131-.131a.676.676,0,0,1-.078-.966.648.648,0,0,1,.966,0,8.333,8.333,0,0,1,2.245,3.185C70.867,19.8,71.05,20.429,71.232,21.029Z" transform="translate(-45.039 -6.041)" fill="#fff"/>
    <path id="Path_7458" data-name="Path 7458" d="M15.9,21.068c.261-.7.47-1.436.757-2.115a8.559,8.559,0,0,1,2.036-2.793.671.671,0,0,1,1.018-.052.7.7,0,0,1-.1,1.018,7.63,7.63,0,0,0-2.324,4.1.693.693,0,0,1-.7.574A.782.782,0,0,1,15.9,21.068Z" transform="translate(-7.094 -6.132)" fill="#fff"/>
  </g>
</svg>
