<svg id="Boat" xmlns="http://www.w3.org/2000/svg" width="68.747" height="45.809" viewBox="0 0 68.747 45.809">
  <path id="Path_186" data-name="Path 186" d="M68.288,54.044c.439-.263.878-.527,1.4-.79a15.669,15.669,0,0,1,7.9-2.107c.79,0,1.58.088,1.58,1.141s-.79,1.141-1.58,1.141a15.68,15.68,0,0,0-7.375,2.195c-5.883,3.336-11.765,3.249-17.648-.088a14.357,14.357,0,0,0-15.189-.088c-6.146,3.512-12.2,3.512-18.262-.088a15.483,15.483,0,0,0-7.112-2.019,2.083,2.083,0,0,1-1.317-.878c-.176-.176.088-.79.351-1.054a1.257,1.257,0,0,1,.966-.263,1.362,1.362,0,0,0,1.493-.878c1.493-2.458,3.073-4.829,4.566-7.2a1.831,1.831,0,0,1,2.019-1.054,1.837,1.837,0,0,0,2.107-1.054c.439-.7,1.054-1.4,1.493-2.107a2.534,2.534,0,0,1,2.634-1.4c.263,0,.615-.088.7-.351l3.249-6.5c-.79-.088-1.317-.088-1.844-.176a3.435,3.435,0,0,1-3.073-3.512,3.337,3.337,0,0,1,3.424-3.249h4.829c-.439-2.019-.7-2.283-2.546-2.283H29.13c-.79,0-1.4-.263-1.4-1.054,0-.966.615-1.229,1.4-1.229H40.9a1.955,1.955,0,0,1,1.493.79c.439.7-.176,1.493-1.229,1.493H35.452c.176,1.756.79,2.283,2.283,2.283h10.1a6.758,6.758,0,0,1,6.5,4.039,3.758,3.758,0,0,0,1.229,1.4c3.512,2.546,6.936,5.092,10.448,7.639a3.858,3.858,0,0,0,1.932.615c2.722.088,5.531.088,8.253,0a2.477,2.477,0,0,1,2.546,1.317,2.4,2.4,0,0,1-.615,2.81c-3.073,3.688-6.146,7.375-9.219,11.151-.351.351-.615.79-.966,1.141C68.113,53.956,68.2,53.956,68.288,54.044ZM57.4,39.821v3.161c0,.79-.351,1.317-1.229,1.317-.79,0-1.054-.615-1.054-1.317V40.523c0-.263-.263-.7-.351-.7-.966-.088-1.932,0-2.9,0-.439,3.863-1.317,4.566-5,4.566-8.078,0-16.155.088-24.233-.088-1.932,0-3.161.439-3.951,2.195a15.322,15.322,0,0,1-1.4,2.195c-.615.966-1.141,1.844-1.668,2.722,1.668.79,3.249,1.317,4.741,2.195,5.356,3.073,10.624,2.985,16.067-.088a16.326,16.326,0,0,1,16.945,0,17.429,17.429,0,0,0,9.043,2.371,2.274,2.274,0,0,0,2.019-.966C68.288,50.181,72.239,45.44,76.19,40.7c.176-.176.263-.439.527-.79H66.62v3.249a1.141,1.141,0,1,1-2.283,0V41.664c0-2.107,0-2.107-2.107-1.844-.088,0-.088.088-.263.176v3.161c0,.7-.439,1.229-1.141,1.141a1.923,1.923,0,0,1-1.141-1.054,5.337,5.337,0,0,1-.088-1.668C59.684,39.557,59.684,39.557,57.4,39.821ZM29.569,37.362H62.845c-1.58-1.4-2.985-2.371-5.092-2.283-4.478.176-9.043.088-13.521.088-2.546,0-3.775-1.229-3.863-3.688,0-.615-.176-.878-.878-.878H33.7a1.341,1.341,0,0,0-.878.351C31.676,33.06,30.623,35.167,29.569,37.362Zm19.667,2.283H27.462c-1.58,0-2.371.615-2.9,2.283h23C49.236,42.016,49.587,41.577,49.236,39.645Zm2.9-11.414a4.813,4.813,0,0,0-4.3-2.283H29.569c-.263,0-.615-.088-.7.088-.439.351-.966.79-.966,1.141s.615.79,1.054,1.054c.176.176.527,0,.878,0h22.3Zm4.39,4.566c-1.668-1.493-3.161-2.458-5.268-2.283-2.546.176-5.092.088-7.726.088-1.054,0-1.317.439-.966,1.493.263.79.878.79,1.58.79H54.855A9.561,9.561,0,0,1,56.523,32.8Z" transform="translate(-10.517 -19.1)" fill="#166972"/>
  <path id="Path_187" data-name="Path 187" d="M61.248,70.248a16.346,16.346,0,0,1-8.6-2.371c-5.268-3.073-10.448-2.985-15.716,0a16.567,16.567,0,0,1-17.3,0A16.035,16.035,0,0,0,11.9,65.682c-.79,0-1.4-.263-1.4-1.141s.615-1.141,1.4-1.141a17,17,0,0,1,8.868,2.546,14.813,14.813,0,0,0,13.17.966c.615-.263,1.229-.615,1.844-.878,6.058-3.512,12.116-3.424,18.174,0a14.621,14.621,0,0,0,15.014,0,25.159,25.159,0,0,1,5-2.107,19.453,19.453,0,0,1,3.951-.439,1.112,1.112,0,0,1,1.317,1.141c0,.79-.527,1.141-1.317,1.141a14.8,14.8,0,0,0-8.078,2.458A17.773,17.773,0,0,1,61.248,70.248Z" transform="translate(-10.5 -24.504)" fill="#166972"/>
</svg>
