<svg xmlns="http://www.w3.org/2000/svg" width="27.5" height="27.451" viewBox="0 0 27.5 27.451">
  <g id="call" transform="translate(-2.9 -4.636)">
    <path id="Path_7439" data-name="Path 7439" d="M2.9,12.432A9.5,9.5,0,0,1,5.637,5.851a3.835,3.835,0,0,1,5.474-.13c.782.782,1.564,1.5,2.346,2.346a3.906,3.906,0,0,1,0,5.278c-.456.521-.977.977-1.434,1.434a1.524,1.524,0,0,0-.065,2.281,52.089,52.089,0,0,0,6,6,1.6,1.6,0,0,0,2.346-.065l1.368-1.368a3.939,3.939,0,0,1,5.409,0c.782.717,1.5,1.5,2.216,2.216a3.881,3.881,0,0,1-.2,5.6,9.586,9.586,0,0,1-12.382.717A50.945,50.945,0,0,1,4.92,18.3,9.277,9.277,0,0,1,2.9,12.432Zm9.579.326.326-.326a2.868,2.868,0,0,0-.2-3.714c-.717-.782-1.434-1.5-2.216-2.216a2.815,2.815,0,0,0-4.04.13A8.422,8.422,0,0,0,5.7,17.646a51.556,51.556,0,0,0,11.6,11.6,8.661,8.661,0,0,0,7.1,1.564,7.778,7.778,0,0,0,3.063-1.434l-6.06-6.06c-.13.13-.2.326-.391.456a2.6,2.6,0,0,1-3.714.13,55.535,55.535,0,0,1-6.191-6.191,2.522,2.522,0,0,1,.13-3.649c.2-.2.391-.261.586-.456C10.655,12.432,9.547,11.39,8.5,10.282c-.456-.456-.521-.717-.261-1.043.261-.261.586-.2,1.043.261C10.329,10.608,11.372,11.65,12.479,12.758Zm15.9,15.835a2.651,2.651,0,0,0,.326-3.649,27.13,27.13,0,0,0-2.737-2.737,2.626,2.626,0,0,0-3.649.326Z" fill="#fff"/>
    <path id="Path_7440" data-name="Path 7440" d="M30.564,18.3H25.872A2.643,2.643,0,0,1,23.2,15.624V10.672A2.643,2.643,0,0,1,25.872,8H34.8a2.643,2.643,0,0,1,2.672,2.672v4.953A2.643,2.643,0,0,1,34.8,18.3a2.641,2.641,0,0,0-2.411,1.043,5.209,5.209,0,0,1-.847.847.8.8,0,0,1-.652.13.684.684,0,0,1-.326-.586A10.514,10.514,0,0,1,30.564,18.3Zm1.043.13.13.13c.652-1.368,1.825-1.368,3.063-1.368a1.574,1.574,0,0,0,1.5-1.564V10.737a1.539,1.539,0,0,0-1.629-1.629h-8.8a1.539,1.539,0,0,0-1.629,1.629v4.822a1.656,1.656,0,0,0,.912,1.5,2.081,2.081,0,0,0,.912.2h4.692c.717,0,.847.13.847.847Z" transform="translate(-7.071 -1.172)" fill="#fff"/>
    <path id="Path_7441" data-name="Path 7441" d="M15.091,29.9a3.638,3.638,0,0,1,.521.326c.977.977,1.955,1.955,3,2.867.326.326.391.586.13.847s-.521.261-.847-.065c-.977-.977-2.02-1.955-3-2.932a1.1,1.1,0,0,1-.2-.652C14.7,30.1,14.961,30.03,15.091,29.9Z" transform="translate(-4.11 -8.8)" fill="#fff"/>
    <path id="Path_7442" data-name="Path 7442" d="M12.986,28.643a.575.575,0,0,1-.586-.521.48.48,0,0,1,.521-.521c.326,0,.586.261.521.521A.5.5,0,0,1,12.986,28.643Z" transform="translate(-3.309 -7.999)" fill="#fff"/>
    <path id="Path_7443" data-name="Path 7443" d="M9.121,10.343a.521.521,0,1,1,0-1.043c.261,0,.586.261.521.521A.48.48,0,0,1,9.121,10.343Z" transform="translate(-1.986 -1.625)" fill="#fff"/>
    <path id="Path_7444" data-name="Path 7444" d="M29.821,15.1a.48.48,0,0,1,.521.521.514.514,0,0,1-.521.521.521.521,0,1,1,0-1.043Z" transform="translate(-9.196 -3.645)" fill="#fff"/>
    <path id="Path_7445" data-name="Path 7445" d="M34.343,15.621a.48.48,0,0,1-.521.521c-.326,0-.521-.13-.521-.456a.532.532,0,0,1,.521-.586C34.082,15.1,34.277,15.3,34.343,15.621Z" transform="translate(-10.589 -3.645)" fill="#fff"/>
    <path id="Path_7446" data-name="Path 7446" d="M38.237,15.621a.48.48,0,0,1-.521.521c-.326,0-.586-.2-.521-.521a.521.521,0,1,1,1.043,0Z" transform="translate(-11.943 -3.645)" fill="#fff"/>
  </g>
</svg>
