<svg xmlns="http://www.w3.org/2000/svg" width="50.083" height="50.058" viewBox="0 0 50.083 50.058">
  <g id="equipment" transform="translate(0)">
    <path id="Path_183" data-name="Path 183" d="M52.63,26.691c-.285-.285-.57-.513-.855-.8-.513.513-.968.968-1.424,1.481a2.693,2.693,0,0,0-.57,2.165A7.525,7.525,0,0,1,40.04,37.8c-1.424-.456-1.538-.968-.513-2.051,1.082-1.082,2.108-2.165,3.19-3.19.741-.684.228-1.424.057-2.108-.057-.228-.57-.4-.855-.513a1.554,1.554,0,0,0-1.937.57c-.968,1.082-1.994,2.051-3.019,3.019-.8.8-1.367.627-1.709-.4A7.534,7.534,0,0,1,43.344,23.1a2.739,2.739,0,0,0,2.45-.741c.456-.4.912-.741,1.367-1.139l-5.64-5.64a2.353,2.353,0,0,0-.627-.4,4.919,4.919,0,0,1-3.019-2.905c-.57-1.139-1.2-2.279-1.88-3.361a1.056,1.056,0,0,1,.171-1.424C37.59,6.011,37.533,6.011,39.3,6.98c1.253.684,2.564,1.367,3.817,2.108a2.055,2.055,0,0,1,.855.855,11.211,11.211,0,0,0,2.962,3.931c1.253,1.2,2.393,2.393,3.7,3.7A8.3,8.3,0,0,0,52,16.038a3.867,3.867,0,0,0,.57-2.165A7.594,7.594,0,0,1,62.6,5.669c1.139.4,1.253.968.4,1.823-1.082,1.139-2.165,2.222-3.3,3.3-.741.684-.228,1.424-.057,2.108.057.228.57.4.855.57a1.623,1.623,0,0,0,1.937-.57c.968-1.082,1.994-2.051,3.019-3.019.8-.8,1.367-.627,1.709.4a7.57,7.57,0,0,1-8.09,10.084,2.739,2.739,0,0,0-2.45.741c-.456.4-.912.741-1.424,1.2a10.977,10.977,0,0,0,.912.855,9.9,9.9,0,0,1,.855-.741A2.527,2.527,0,0,1,61,24.925a1.276,1.276,0,0,0,.342.968c1.367,1.424,2.848,2.848,4.273,4.273a4.216,4.216,0,1,1-5.925,5.982l-4.273-4.273a1.276,1.276,0,0,0-.968-.342,2.567,2.567,0,0,1-2.791-1.253A2.6,2.6,0,0,1,52,27.318,3.205,3.205,0,0,0,52.63,26.691ZM41.236,36.376c.456.057.627.114.855.114a5.853,5.853,0,0,0,6.039-6.722,4.144,4.144,0,0,1,1.2-3.76l6.153-6.153a4.144,4.144,0,0,1,3.76-1.2,5.87,5.87,0,0,0,6.722-6.1c0-.171-.114-.342-.171-.741-.911.968-1.766,1.766-2.564,2.678a2.306,2.306,0,0,1-2.507.8c-2.962-.684-2.336-.114-3.076-3.076a2.337,2.337,0,0,1,.8-2.507c.912-.8,1.652-1.652,2.621-2.564-.285-.057-.4-.114-.456-.114a5.826,5.826,0,0,0-6.267,6.608,4.253,4.253,0,0,1-1.2,3.817c-2.051,2.051-4.1,4.159-6.153,6.153a4.144,4.144,0,0,1-3.76,1.2,5.87,5.87,0,0,0-6.722,6.1c0,.171.114.342.171.741.57-.627,1.025-1.139,1.538-1.652,2.165-2.165,2.165-2.165,5.127-1.424a.209.209,0,0,1,.171.057c.285.285.741.513.855.855a16.2,16.2,0,0,1,.513,2.393,1.327,1.327,0,0,1-.456,1.481C43.4,34.268,42.433,35.236,41.236,36.376Zm14.983-6.039c1.6,1.538,3.133,3.076,4.671,4.615a2.508,2.508,0,1,0,3.532-3.532L60.15,27.147a3.16,3.16,0,0,0-.456-.342C58.612,28,57.472,29.084,56.219,30.337ZM37.761,8.176c.057.342,0,.456.057.57.741,1.367,1.481,2.735,2.279,4.1a1.393,1.393,0,0,0,.627.513A8.534,8.534,0,0,1,43.8,15.582c1.424,1.481,2.848,2.962,4.33,4.444.456-.513.8-.855,1.2-1.31-1.823-1.823-3.532-3.532-5.3-5.241a2.38,2.38,0,0,1-.627-.855,4.78,4.78,0,0,0-2.962-2.962c-.684-.285-1.253-.684-1.937-1.025A1.645,1.645,0,0,0,37.761,8.176ZM52.915,29.027c.171.285.342.684.57.741a1.4,1.4,0,0,0,1.082-.228c1.538-1.424,2.962-2.962,4.444-4.444.4-.4.627-.855.171-1.31-.513-.456-.968-.285-1.367.171l-4.33,4.33C53.314,28.514,53.143,28.742,52.915,29.027Zm.228-4.444c.285.4.456.684.684.968.456-.456.855-.8,1.2-1.139-.285-.342-.513-.627-.741-.912C53.769,23.956,53.428,24.3,53.143,24.583Z" transform="translate(-17.651 -5.232)" fill="#166972"/>
    <path id="Path_184" data-name="Path 184" d="M11.365,78.754H5.953c-.968,0-1.253-.228-1.253-1.253v-11c0-.968.228-1.2,1.2-1.2h5.469c0-.285.057-.513.057-.741a.856.856,0,0,1,.912-.968h6.551c.627,0,.912.342.912.968v1.31c1.253-.285,2.393-.57,3.532-.912a8.466,8.466,0,0,1,4.615,0c3.646,1.025,7.292,1.937,10.881,2.962A22.439,22.439,0,0,1,41.9,69.3c2.393-1.367,5.013-2.905,7.691-4.444a3.373,3.373,0,1,1,3.418,5.811c-2.621,1.538-5.241,3.019-7.862,4.558-1.937,1.139-3.874,2.222-5.811,3.361a6.865,6.865,0,0,1-3.646.968c-3.817,0-7.634-.057-11.394,0a7.579,7.579,0,0,1-3.874-.855,3.068,3.068,0,0,1-.57-.171c-.228,1.88-.228,1.88-2.108,1.88H13.131C11.536,80.406,11.536,80.406,11.365,78.754ZM19.8,67.645v8.431a.87.87,0,0,0,.228.57A7.35,7.35,0,0,0,23.614,77.9c3.361,0,6.722-.114,10.084,0a10.932,10.932,0,0,0,6.494-1.709C44.123,73.8,48.111,71.576,52.1,69.3a1.763,1.763,0,0,0,.855-2.336,1.687,1.687,0,0,0-2.393-.627c-2.621,1.481-5.3,3.019-7.919,4.558a1.134,1.134,0,0,0-.456.684A3.267,3.267,0,0,1,37.97,74.6c-3.3-.8-6.551-1.766-9.8-2.621-.57-.171-.912-.456-.741-1.082s.627-.684,1.2-.57c1.025.285,2.108.57,3.133.855l6.324,1.709c1.253.342,2.165-.114,2.393-1.139s-.342-1.823-1.538-2.108c-4.1-1.082-8.2-2.222-12.305-3.247a3.793,3.793,0,0,0-1.6-.114C23.329,66.733,21.62,67.246,19.8,67.645ZM18.088,78.7V65.366H13.131V78.7ZM11.365,67.075H6.409v9.97h4.956Z" transform="translate(-4.7 -30.348)" fill="#166972"/>
    <path id="Path_185" data-name="Path 185" d="M67,38.382c.285-.285.627-.627,1.139-1.082.228.285.456.57.741.912-.342.342-.741.684-1.2,1.139C67.456,39.066,67.285,38.781,67,38.382Z" transform="translate(-31.508 -19.031)" fill="#166972"/>
  </g>
</svg>
