<svg xmlns="http://www.w3.org/2000/svg" width="58.679" height="58.5" viewBox="0 0 58.679 58.5">
  <g id="gas" transform="translate(-5.3 -2.771)">
    <path id="Path_356" data-name="Path 356" d="M12.858,48.21c-1.47-.21-1.82,0-1.82,1.26V61.227H9.219c0-.42-.07-.84-.07-1.26V50.449c0-3.359.35-3.779,3.639-4.409v-1.47A4.468,4.468,0,0,0,7.26,48.98c-.07,2.169,0,4.339,0,6.508v4.2c0,1.75,0,1.75-1.96,1.4V49.68c0-4.479,2.379-7.068,6.858-7.348a4.028,4.028,0,0,0,.7-.14V39.462c1.89,0,3.639-.07,5.389,0a1.706,1.706,0,0,0,1.89-1.12A24.727,24.727,0,0,1,22.8,34.353c.35-.49.49-.84.07-1.33-.63-.84-1.19-1.68-1.75-2.589a1.3,1.3,0,0,0-1.75-.63,11.327,11.327,0,1,1,6.158-18.055,11.18,11.18,0,0,1,.91,12.807,1.5,1.5,0,0,0,.07,2.029,21.009,21.009,0,0,1,1.75,2.589c.49.91,1.05.98,1.96.7a15.084,15.084,0,0,1,7.488-.35,1.292,1.292,0,0,0,1.61-.63c.63-1.05,1.75-2.029,1.82-3.079.07-.91-1.12-1.89-1.68-2.8-2.869-4.9-2.869-9.8.28-14.486A12.455,12.455,0,0,1,52.4,2.931c5.809.77,9.588,4.2,11.127,9.868A13.168,13.168,0,0,1,48.829,29.1c-1.12-.14-1.75,0-2.239.98-.49.91-1.54,1.75-1.47,2.519,0,.77,1.12,1.47,1.75,2.239A15.562,15.562,0,0,1,50.439,48c-.07.28,0,.56-.07.91h2.869c.49-1.82.49-1.82,2.519-1.82h3.289a4.028,4.028,0,0,1,.14.7c.07,2.1.07,2.1,2.169,2.1h2.519v5.739c-1.12,0-2.239.07-3.429,0-.98-.07-1.26.28-1.26,1.26.07,1.61,0,1.61-1.68,1.61H54.5c-.7,0-1.05-.21-.98-.98s-.35-.98-1.05-.98H46.8a2.7,2.7,0,0,0-1.4.56c-8.538,7.278-20.435,4.759-25.474-5.389a1.535,1.535,0,0,0-1.26-.77c-1.47-.07-3.009-.07-4.479,0-1.05.07-1.54-.21-1.33-1.33A9.29,9.29,0,0,0,12.858,48.21Zm21.764,11.2A14.137,14.137,0,1,0,20.556,45.2,14.142,14.142,0,0,0,34.623,59.407Zm16.1-32.122a11.267,11.267,0,1,0-11.337-11.2A11.26,11.26,0,0,0,50.719,27.285Zm-34.081.91a9.5,9.5,0,0,0,9.518-9.378A9.577,9.577,0,0,0,16.777,9.37a9.453,9.453,0,0,0-9.448,9.448A9.319,9.319,0,0,0,16.637,28.195Zm2.1,20.715V41.492c-1.05,0-2.169-.07-3.219,0a.946.946,0,0,0-.63.63c-.07,2.239,0,4.479,0,6.788Zm29.043,5.809h4.969c.28,0,.63-.42.7-.7.42-2.869.21-3.079-2.729-3.009a1.587,1.587,0,0,0-1.26.49C48.9,52.409,48.409,53.459,47.779,54.718Zm7.7,1.68H57.3c0-2.309,0-4.479-.07-6.718,0-.21-.56-.7-.84-.63a1.432,1.432,0,0,0-.98.63C55.407,51.919,55.477,54.088,55.477,56.4ZM27.2,30.994c-.91-1.33-1.68-2.589-2.589-3.849a12.654,12.654,0,0,0-1.75,1.33,1.083,1.083,0,0,0-.21.77c.7,1.12,1.47,2.169,2.239,3.289C25.735,31.9,26.435,31.484,27.2,30.994Zm15.956.63c.77-1.12,1.47-2.239,2.239-3.359-.84-.49-1.61-.91-2.449-1.4-.77,1.19-1.54,2.309-2.309,3.5A21.136,21.136,0,0,1,43.16,31.624ZM60.8,53.738c.35-.07,1.19.35,1.19-.91,0-1.12-.77-.91-1.4-.91s-1.4-.28-1.47.91C59.116,53.878,59.816,53.808,60.8,53.738Z" transform="translate(0 0)" fill="#166972"/>
    <path id="Path_357" data-name="Path 357" d="M34.638,41.449c-.77.49-1.47.98-2.309,1.54-.77-1.12-1.54-2.169-2.239-3.289a.833.833,0,0,1,.21-.77c.49-.42,1.05-.84,1.75-1.33C32.888,38.86,33.728,40.119,34.638,41.449Z" transform="translate(-7.433 -10.455)" fill="#166972"/>
    <path id="Path_358" data-name="Path 358" d="M50.145,66.112c-.42-.42-.77-.77-1.26-1.19a8.866,8.866,0,0,0,2.1-7.7A8.566,8.566,0,0,0,47.7,52.186a8.4,8.4,0,0,0-10.847.77,8.51,8.51,0,0,0-1.12,10.917c2.659,3.849,6.788,4.549,12.107,2.1.35.42.63.84.98,1.26-2.869,3.289-9.588,2.869-13.3-.63A10.406,10.406,0,1,1,50.565,52.256C54.064,56.245,53.924,63.033,50.145,66.112Z" transform="translate(-8.105 -13.773)" fill="#166972"/>
    <path id="Path_359" data-name="Path 359" d="M37.7,60.718A6.678,6.678,0,0,1,44.208,54,6.614,6.614,0,1,1,37.7,60.718Zm6.718,4.619a4.689,4.689,0,0,0,0-9.378,4.809,4.809,0,0,0-4.759,4.759A4.691,4.691,0,0,0,44.418,65.337Z" transform="translate(-9.726 -15.377)" fill="#166972"/>
    <path id="Path_360" data-name="Path 360" d="M66.147,8.2a9.349,9.349,0,0,1,9.378,9.448,9.413,9.413,0,1,1-18.825-.07A9.349,9.349,0,0,1,66.147,8.2Zm7.488,9.378a7.523,7.523,0,1,0-7.488,7.558A7.512,7.512,0,0,0,73.635,17.578Z" transform="translate(-15.429 -1.63)" fill="#166972"/>
    <path id="Path_361" data-name="Path 361" d="M18.458,30.016a7.558,7.558,0,0,1-.07-15.116,7.558,7.558,0,1,1,.07,15.116Zm5.529-7.558a5.527,5.527,0,0,0-5.6-5.6,5.616,5.616,0,0,0-5.669,5.529,5.7,5.7,0,0,0,5.669,5.739A5.63,5.63,0,0,0,23.987,22.458Z" transform="translate(-1.681 -3.641)" fill="#166972"/>
    <path id="Path_362" data-name="Path 362" d="M65.572,24.786c-1.54,0-2.449-.49-2.939-1.54a2.419,2.419,0,0,1,.28-3.009c1.89-1.96,3.779-3.919,5.809-5.809a2.827,2.827,0,0,1,3.849.28,2.641,2.641,0,0,1,.07,3.709c-1.82,1.96-3.779,3.849-5.739,5.739C66.482,24.576,65.782,24.646,65.572,24.786Zm3.639-5.319c.7-.84,1.33-1.47,1.82-2.169a1.336,1.336,0,0,0,0-1.26c-.14-.21-.91-.21-1.12-.07A27.728,27.728,0,0,0,67.811,18C68.3,18.488,68.581,18.838,69.211,19.468Zm-2.729-.21a16.265,16.265,0,0,0-1.89,2.029c-.21.35-.07.91-.07,1.33.42,0,.98.14,1.26-.07a23.239,23.239,0,0,0,1.96-1.82C67.251,20.167,66.9,19.748,66.482,19.258Z" transform="translate(-17.093 -3.31)" fill="#166972"/>
    <path id="Path_363" data-name="Path 363" d="M24,25.1a2.822,2.822,0,0,1-1.54,2.659,2.408,2.408,0,0,1-2.939-.21c-1.19-1.05-2.309-2.169-3.359-3.289a2.848,2.848,0,0,1,.14-3.569,2.625,2.625,0,0,1,3.5-.49,46.372,46.372,0,0,1,3.709,3.709A2.4,2.4,0,0,1,24,25.1Zm-5.739-1.33c.56-.42,1.05-.77,1.75-1.26a9.113,9.113,0,0,0-1.82-.7c-.21,0-.7.49-.63.7A7.29,7.29,0,0,0,18.257,23.766Zm1.4,1.61c.77.28,1.26.56,1.75.7.14,0,.63-.56.56-.7a6.951,6.951,0,0,0-.77-1.4C20.637,24.466,20.287,24.816,19.657,25.376Z" transform="translate(-3.09 -5.089)" fill="#166972"/>
  </g>
</svg>
