<svg xmlns="http://www.w3.org/2000/svg" width="59.022" height="58.3" viewBox="0 0 59.022 58.3">
  <g id="heating-oil" transform="translate(-8.5 -8.7)">
    <path id="Path_367" data-name="Path 367" d="M67.522,39.077c-1.948,0-3.536.072-5.123,0-.938-.072-1.154.289-1.154,1.154V67H14.85c0-.577-.072-1.082-.072-1.587,0-8.3,0-16.6.072-24.893,0-1.154-.361-1.515-1.443-1.443-1.515.072-3.03,0-4.906,0C18.457,28.831,28.2,18.874,38.083,8.7c3.175,3.319,6.277,6.566,9.38,9.885.144-.072.289-.216.433-.289V9.277h6.927c1.01,0,2.381-.216,2.958.289C58.286,10,58,11.442,58,12.38V27.965a2.893,2.893,0,0,0,.938,2.237c2.6,2.525,5.123,5.2,7.648,7.793C66.8,38.283,67.016,38.5,67.522,39.077ZM38.3,12.019c-8.081,8.3-15.874,16.307-23.883,24.46,1.082.072,1.876.072,2.814.144V64.4h41.56V36.479h2.67c-.289-.361-.433-.649-.649-.866-1.443-1.443-2.814-2.958-4.329-4.4a2.92,2.92,0,0,1-1.01-2.381c.072-5.267,0-10.607,0-15.874,0-.433-.072-.794-.072-1.227H50.349V24.213c-.072.072-.216.072-.289.144C46.308,20.389,42.34,16.276,38.3,12.019Z" fill="#166972"/>
    <path id="Path_368" data-name="Path 368" d="M46.965,35.6c1.587,3.824,3.03,7.36,4.474,10.9.433,1.082.938,2.165,1.371,3.247A6.5,6.5,0,0,1,43,57.607,6.389,6.389,0,0,1,40.9,49.959c1.876-4.474,3.752-9.019,5.628-13.493A8.814,8.814,0,0,0,46.965,35.6Z" transform="translate(-8.882 -7.491)" fill="#166972"/>
  </g>
</svg>
