<svg xmlns="http://www.w3.org/2000/svg" width="23.98" height="23.977" viewBox="0 0 23.98 23.977">
  <g id="help" transform="translate(-8.169 -7.147)">
    <path id="Path_347" data-name="Path 347" d="M22.68,10.2a11.883,11.883,0,0,1,15.907,0q-1.451,1.438-2.9,2.877c-.3.3-.61.591-.9.9-.142.153-.245.145-.41.031A6.267,6.267,0,0,0,26.872,14a.385.385,0,0,1-.365,0C25.222,12.742,23.951,11.471,22.68,10.2Z" transform="translate(-10.466)" fill="#ff8000"/>
    <path id="Path_348" data-name="Path 348" d="M11.2,37.557a11.91,11.91,0,0,1,0-15.877,1.842,1.842,0,0,1,.162.131c1.2,1.2,2.4,2.405,3.607,3.6a.313.313,0,0,1,.042.5A6.265,6.265,0,0,0,15,33.32c.12.17.2.282,0,.468-1.226,1.21-2.439,2.433-3.66,3.651A1.407,1.407,0,0,1,11.2,37.557Z" transform="translate(0 -10.482)" fill="#ff8000"/>
    <path id="Path_349" data-name="Path 349" d="M73.178,21.61a11.924,11.924,0,0,1-.017,15.921q-1.438-1.451-2.874-2.9c-.3-.3-.591-.608-.9-.9a.262.262,0,0,1-.036-.41,6.272,6.272,0,0,0,.02-7.512.385.385,0,0,1-.006-.365C70.622,24.166,71.9,22.895,73.178,21.61Z" transform="translate(-44.067 -10.431)" fill="#ff8000"/>
    <path id="Path_350" data-name="Path 350" d="M22.64,72.136l2.9-2.874c.3-.3.61-.591.9-.9.139-.151.242-.148.41-.033a6.272,6.272,0,0,0,7.512.017.394.394,0,0,1,.365-.006c1.282,1.26,2.55,2.531,3.824,3.8A11.885,11.885,0,0,1,22.64,72.136Z" transform="translate(-10.437 -44.066)" fill="#ff8000"/>
  </g>
</svg>
