<svg xmlns="http://www.w3.org/2000/svg" width="32" height="32" viewBox="0 0 32 32"><path fill="#2CBD3E" d="M28,18.4994507 C26.7465092,17.5579172 25.1884089,17 23.5,17 C19.3578644,17 16,20.3578644 16,24.5 C16,26.6730542 16.924178,28.630255 18.4009315,30 L5,30 C4.44771525,30 4,29.5522847 4,29 L4,3 C4,2.44771525 4.44771525,2 5,2 L27,2 C27.5522847,2 28,2.44771525 28,3 L28,18.4994507 Z M9,12 L23,12 L23,10 L9,10 L9,12 Z M9,17 L19,17 L19,15 L9,15 L9,17 Z M23.5,30 C20.4624339,30 18,27.5375661 18,24.5 C18,21.4624339 20.4624339,19 23.5,19 C26.5375661,19 29,21.4624339 29,24.5 C29,27.5375661 26.5375661,30 23.5,30 Z M20.9997906,24.7876427 L20.9997906,26.2876427 L24.7497906,26.2876427 L24.7497906,21.5376427 L23.2497906,21.5376427 L23.2497906,24.7876427 L20.9997906,24.7876427 Z"/></svg>