<svg xmlns="http://www.w3.org/2000/svg" width="49.856" height="44.503" viewBox="0 0 49.856 44.503">
  <g id="home1" transform="translate(0)">
    <path id="Path_188" data-name="Path 188" d="M27.65,64.633V63.617c0-3.585-.054-7.224.054-10.81a6.29,6.29,0,0,1,6.368-5.833,6.373,6.373,0,0,1,6.422,5.779c.161,3.585.054,7.224.107,10.81v1.07H50.982V44.726q0-1.926,1.284-1.926c.856,0,1.338.642,1.338,1.926v20.71c0,1.5-.428,1.873-1.926,1.873H39.851c-1.445,0-1.819-.375-1.819-1.766V53.556a3.662,3.662,0,0,0-2.248-3.532,3.571,3.571,0,0,0-4.013.428,3.83,3.83,0,0,0-1.5,3.157V65.6c0,1.284-.428,1.712-1.712,1.712H16.466c-1.338,0-1.766-.428-1.766-1.766V44.566a3.291,3.291,0,0,1,.054-.749,1.165,1.165,0,0,1,1.231-.963,1.165,1.165,0,0,1,1.231.963,5.5,5.5,0,0,1,.054.91v19.96C20.693,64.633,24.118,64.633,27.65,64.633Z" transform="translate(-9.218 -22.806)" fill="#166972"/>
    <path id="Path_189" data-name="Path 189" d="M29.363,8.361c-3.264,2.408-6.475,4.763-9.686,7.117-4.281,3.1-8.562,6.207-12.79,9.311-.161.107-.268.214-.428.321a1.264,1.264,0,0,1-1.766-.321,1.209,1.209,0,0,1,.268-1.712c.642-.535,1.338-1.017,1.98-1.5L27.972,6.166c1.284-.963,1.5-.963,2.729-.054C38.246,11.625,45.792,17.19,53.39,22.7c.107.054.214.161.321.214a1.28,1.28,0,0,1,.321,1.873A1.246,1.246,0,0,1,52.16,25c-1.5-1.07-3-2.194-4.442-3.264C41.618,17.351,35.517,12.856,29.363,8.361Z" transform="translate(-4.456 -5.437)" fill="#166972"/>
  </g>
</svg>
