<svg xmlns="http://www.w3.org/2000/svg" width="15.47" height="15.47" viewBox="0 0 15.47 15.47">
  <g id="logout1" transform="translate(-11.68 -13.71)">
    <path id="Path_357" data-name="Path 357" d="M11.68,21.442A7.735,7.735,0,1,1,19.4,29.18,7.738,7.738,0,0,1,11.68,21.442ZM17.2,17.328a4.606,4.606,0,0,0-2.448,4.845,4.722,4.722,0,0,0,9.338-.061c.242-2-.969-4.375-2.46-4.776,0,.323.01.638,0,.952a.565.565,0,0,0,.214.49,3.6,3.6,0,0,1-3.289,6.154,3.425,3.425,0,0,1-2.619-2.6,3.492,3.492,0,0,1,1.055-3.565c.081-.079.194-.176.2-.268C17.211,18.115,17.2,17.727,17.2,17.328Zm1.691-1.239v3.543h1.055V16.089Z" transform="translate(0 0)" fill="#fff"/>
  </g>
</svg>
