<svg xmlns="http://www.w3.org/2000/svg" width="19.333" height="15.47" viewBox="0 0 19.333 15.47">
  <g id="message" transform="translate(-10.19 -17.786)">
    <path id="Path_354" data-name="Path 354" d="M10.19,32.77c.236.149.426.265.613.385q4.271,2.763,8.54,5.532a.835.835,0,0,0,1.031,0q4.4-2.863,8.809-5.7c.095-.061.2-.118.341-.2V42.2a2.38,2.38,0,0,1-2.514,2.5H12.7a2.381,2.381,0,0,1-2.514-2.5V33.141C10.19,33.035,10.19,32.931,10.19,32.77Z" transform="translate(0 -11.441)" fill="#fff"/>
    <path id="Path_355" data-name="Path 355" d="M20.078,17.787q3.64,0,7.282,0a2.367,2.367,0,0,1,2.285,1.705.354.354,0,0,1-.168.478Q24.89,22.927,20.312,25.9a.357.357,0,0,1-.456,0q-4.576-2.973-9.164-5.929a.353.353,0,0,1-.177-.473A2.38,2.38,0,0,1,12.8,17.787Q16.44,17.783,20.078,17.787Z" transform="translate(-0.225)" fill="#fff"/>
  </g>
</svg>
