<svg xmlns="http://www.w3.org/2000/svg" width="41.562" height="58.5" viewBox="0 0 41.562 58.5">
  <g id="Off_Road_Diesel" data-name="Off Road Diesel" transform="translate(-20 -9.5)">
    <path id="Path_353" data-name="Path 353" d="M23.63,15.478c-.285,0-.427-.071-.569-.071-.925-.071-1.281-.356-1.281-1.281V10.781c0-.925.356-1.281,1.281-1.281H35.8c.925,0,1.281.356,1.281,1.281v3.345c0,.783-.356,1.21-1.139,1.21-.854-.071-.641.5-.712.925-.071.641.285.712.783.712h18.5a6.89,6.89,0,0,1,4.555,1.495,6.51,6.51,0,0,1,2.491,5.124v37.79A6.63,6.63,0,0,1,54.659,68H26.832a6.632,6.632,0,0,1-6.761-5.551A9.074,9.074,0,0,1,20,61.026V23.876a6.887,6.887,0,0,1,3.274-6.049,1.21,1.21,0,0,0,.427-.712C23.7,16.688,23.63,16.119,23.63,15.478ZM21.993,42.593V61.239a4.465,4.465,0,0,0,4.626,4.7H54.73a4.505,4.505,0,0,0,4.626-4.7v-19.5a2,2,0,0,0-.427-1.068C51.954,33.7,44.909,26.723,37.934,19.748a1.833,1.833,0,0,0-1.139-.5c-3.274-.071-6.547,0-9.821,0-3.06,0-4.911,1.85-4.911,4.982C21.993,30.281,21.993,36.473,21.993,42.593Zm37.221-4.626a.248.248,0,0,0,.142-.071V24.161c0-3.06-1.85-4.982-4.911-4.982H41.422a2.919,2.919,0,0,0-.783.071c0,.071-.071.142-.071.214,1,.925,1.922,1.922,2.918,2.776a1.616,1.616,0,0,0,1.139.427q3.95.107,7.9,0a3.133,3.133,0,0,1,3.345,3.345c-.071,2.633,0,5.338,0,8.042a1.067,1.067,0,0,0,.142.712Zm-5.48-5.693V25.726c0-.641-.427-.925-1.068-.925H46.688a3.082,3.082,0,0,0-.356.071Zm-18.859-19V11.706H23.985v1.566Zm-9.109,2.206a6.816,6.816,0,0,0,0,1.21c0,.142.285.356.5.356h5.409c1.423,0,1.423,0,1.281-1.423,0-.071-.071-.071-.071-.142Z" fill="#166972"/>
    <path id="Path_354" data-name="Path 354" d="M25.1,47.177V29.6a3.965,3.965,0,0,1,3.06-4.128,3.465,3.465,0,0,1,.854-.071H37.2a2.217,2.217,0,0,1,1.281.5L58.762,46.181a2.046,2.046,0,0,1,.5,1.281c0,5.836.071,11.6,0,17.436A3.829,3.829,0,0,1,55.2,68.884H29.3a3.979,3.979,0,0,1-4.2-4.128Zm2.135,0V64.756c0,1.423.641,2.064,2.064,2.064H54.991c1.423,0,2.064-.641,2.064-2.064V48.245a2,2,0,0,0-.427-1.068L37.412,27.962a1.616,1.616,0,0,0-1.139-.427c-2.277-.071-4.555,0-6.761,0-1.708,0-2.277.641-2.277,2.277C27.235,35.577,27.235,41.413,27.235,47.177Z" transform="translate(-1.47 -4.584)" fill="#166972"/>
    <path id="Path_355" data-name="Path 355" d="M51.759,62.495c0,4.555-2.491,7.33-6.263,7.757A6.825,6.825,0,0,1,38.45,64.7a10.417,10.417,0,0,1,1.139-6.547c1.423-2.7,2.918-5.338,4.412-8.042a1.531,1.531,0,0,1,1.068-.712,1.285,1.285,0,0,1,1,.712c1.495,2.7,2.989,5.48,4.484,8.184A9.314,9.314,0,0,1,51.759,62.495ZM45,52.531c-1.423,2.7-2.776,5.2-3.985,7.757a6.14,6.14,0,0,0-.427,3.914A4.618,4.618,0,0,0,45,68.046a4.511,4.511,0,0,0,4.555-3.772,8.246,8.246,0,0,0-1.068-5.48c-.854-1.637-1.779-3.274-2.7-4.982A6.713,6.713,0,0,1,45,52.531Z" transform="translate(-5.284 -11.504)" fill="#166972"/>
  </g>
</svg>

