<svg xmlns="http://www.w3.org/2000/svg" width="58.704" height="58.5" viewBox="0 0 58.704 58.5">
  <g id="clean1" transform="translate(-4.9 -6.3)">
    <path id="Path_350" data-name="Path 350" d="M47.642,46.066c2.84.473,4.666-.947,5.208-3.043a6.188,6.188,0,0,0,.068-1.15V26.995c0-1.285.068-2.638,0-3.923a5.189,5.189,0,0,1,1.15-3.449,45.358,45.358,0,0,1,5.478-5.951c.541-.541,1.15-1.082,1.758-1.623a1.277,1.277,0,0,1,1.961,0,1.346,1.346,0,0,1-.2,1.961l-5.613,5.613c-.2.2-.338.406-.541.609-1.353,1.691-1.488,2.164-1.353,4.328,0,.271.135.338.406.338a16.625,16.625,0,0,1,1.894.135,3.741,3.741,0,0,1,2.908,3.449,7.662,7.662,0,0,1-.068,2.164,3.873,3.873,0,0,1-2.164,2.84L56.1,34.7a.994.994,0,0,0-.676,1.082c.068,2.1.068,4.125,0,6.222A6.661,6.661,0,0,1,51.5,48.3a6.531,6.531,0,0,1-2.976.609H47.439v11.7a3.921,3.921,0,0,1-2.908,4.058,4.832,4.832,0,0,1-1.353.135H9.3a4.085,4.085,0,0,1-4.4-4.4V10.628a4.359,4.359,0,0,1,.609-2.435A3.907,3.907,0,0,1,9.093,6.3H43.111a4.124,4.124,0,0,1,3.72,1.894,4.586,4.586,0,0,1,.609,2.5V45.458A.745.745,0,0,1,47.642,46.066ZM26.406,30.241H8.484c-.676,0-.676,0-.676.676V60.4c0,1.285.406,1.691,1.691,1.691H43.855a1.164,1.164,0,0,0,1.082-1.082v-30.1c0-.676,0-.676-.676-.676Zm18.531-2.705V10.7c0-1.285-.406-1.691-1.691-1.691H9.431c-1.217,0-1.623.406-1.623,1.623V27.536ZM55.69,32c.609-.338,1.15-.541,1.623-.812a2.251,2.251,0,0,0,.676-3.043,1.573,1.573,0,0,0-.812-.541,11.926,11.926,0,0,0-1.555,0C55.69,29.091,55.69,30.512,55.69,32Z" fill="#166972"/>
    <path id="Path_351" data-name="Path 351" d="M23.833,61.805c-.2-.2-.406-.338-.541-.473-2.705-2.638-2.705-6.087-.068-8.792a13.43,13.43,0,0,1,6.29-3.449l4.261-1.217a11.576,11.576,0,0,0,3.72-1.961,1.344,1.344,0,0,1,2.3.812,19.225,19.225,0,0,1-2.435,17.11c-1.42,2.1-4.937,4.261-8.116,3.314a6.464,6.464,0,0,1-3.382-2.435,3.752,3.752,0,0,1-.406-.541c-.406.609-.812,1.082-1.082,1.555l-2.84,5.478a1.428,1.428,0,0,1-1.826.879,1.345,1.345,0,0,1-.676-1.894,38.845,38.845,0,0,1,4.4-7.845A5.487,5.487,0,0,0,23.833,61.805Zm1.758-1.961a2.863,2.863,0,0,1,.338-.473,18.724,18.724,0,0,1,5.546-4.261,2.16,2.16,0,0,1,.947-.2A1.164,1.164,0,0,1,33.5,55.989a1.319,1.319,0,0,1-.744,1.488,17.132,17.132,0,0,0-4.531,3.449c-1.15,1.082-1.15,1.15-.068,2.435a3,3,0,0,0,2.57,1.353,5.678,5.678,0,0,0,4.6-2.57A15.925,15.925,0,0,0,38.035,51.12c-.068-.676-.2-1.353-.338-2.029l-1.353.676a33.252,33.252,0,0,1-6.222,1.961,10.941,10.941,0,0,0-4.869,2.57,4.054,4.054,0,0,0-1.217,2.232C23.7,57.95,24.509,58.9,25.591,59.844Z" transform="translate(-4.528 -12.695)" fill="#166972"/>
    <path id="Path_352" data-name="Path 352" d="M29,14.1h14.27c1.15,0,1.623.473,1.623,1.623V25.868a1.393,1.393,0,0,1-1.555,1.555H14.455A1.393,1.393,0,0,1,12.9,25.868V15.588A1.324,1.324,0,0,1,14.388,14.1Zm0,2.705H16.282c-.473,0-.609.135-.609.609v6.831c0,.473.135.541.541.541h25.5c.473,0,.541-.135.541-.541V17.482c0-.473-.135-.609-.609-.609C37.45,16.805,33.189,16.805,29,16.805Z" transform="translate(-2.59 -2.525)" fill="#166972"/>
  </g>
</svg>
