<svg xmlns="http://www.w3.org/2000/svg" width="15.472" height="15.47" viewBox="0 0 15.472 15.47">
  <g id="setting2" transform="translate(-9.806 -10.823)">
    <path id="Path_356" data-name="Path 356" d="M21.766,25.119a3.445,3.445,0,0,1-.342-.158c-.275-.168-.538-.354-.816-.516a.388.388,0,0,0-.259-.02c-.1.022-.186.109-.285.123-.443.069-.593.36-.634.767a3.969,3.969,0,0,1-.134.611.45.45,0,0,1-.476.364q-1.281,0-2.563,0a.446.446,0,0,1-.472-.368c-.081-.328-.164-.656-.219-.99a.3.3,0,0,0-.235-.267.831.831,0,0,1-.249-.091.711.711,0,0,0-.984.1,3.687,3.687,0,0,1-.486.314.455.455,0,0,1-.636-.059q-.914-.9-1.812-1.812a.452.452,0,0,1-.053-.636c.172-.281.364-.551.526-.838a.488.488,0,0,0,.024-.3c-.016-.091-.1-.172-.113-.263-.069-.443-.36-.593-.765-.634a3.969,3.969,0,0,1-.611-.134.45.45,0,0,1-.364-.476q-.009-1.275,0-2.559a.456.456,0,0,1,.393-.48c.328-.083.662-.14.988-.227a.429.429,0,0,0,.219-.18c.057-.083.057-.206.115-.287a.714.714,0,0,0-.1-.984,3.686,3.686,0,0,1-.314-.486A.455.455,0,0,1,11.169,14q.9-.914,1.812-1.812a.456.456,0,0,1,.638-.053c.281.172.551.364.838.526a.475.475,0,0,0,.3.022c.1-.018.188-.105.287-.121a.686.686,0,0,0,.6-.711,4.69,4.69,0,0,1,.146-.66.45.45,0,0,1,.476-.364q1.281,0,2.563,0a.448.448,0,0,1,.472.37c.081.328.14.662.231.986a.549.549,0,0,0,.2.253c.081.059.206.059.287.117a.672.672,0,0,0,.923-.081,3.847,3.847,0,0,1,.526-.342.455.455,0,0,1,.636.059q.914.9,1.812,1.812a.456.456,0,0,1,.053.638c-.172.281-.364.551-.526.838a.488.488,0,0,0-.024.3c.016.091.1.172.113.263.069.441.36.6.765.634a3.969,3.969,0,0,1,.611.134.45.45,0,0,1,.364.476c0,.854,0,1.708,0,2.563a.456.456,0,0,1-.393.48c-.32.081-.646.134-.964.223a.546.546,0,0,0-.253.2c-.057.073-.051.192-.107.265a.713.713,0,0,0,.1.984,3.686,3.686,0,0,1,.314.486.455.455,0,0,1-.059.636q-.9.914-1.814,1.81A1.327,1.327,0,0,1,21.766,25.119Zm-4.225-3.791a2.77,2.77,0,1,0-2.771-2.763A2.771,2.771,0,0,0,17.541,21.328Z" transform="translate(0)" fill="#fff"/>
  </g>
</svg>
