<svg xmlns="http://www.w3.org/2000/svg" width="14.173" height="18" viewBox="0 0 14.173 18">
  <g id="Terms" transform="translate(-16.4 -4.9)">
    <path id="Path_7452" data-name="Path 7452" d="M16.4,22.88V4.9H30.573V18.236c-.1,0-.219.02-.319.02H26.227c-.239,0-.3.08-.3.3V22.9C22.739,22.88,19.589,22.88,16.4,22.88ZM27.8,10.76H19.211a.217.217,0,0,0-.02.1v.558c0,.379,0,.379.359.379h7.894a.8.8,0,0,0,.219,0c.06-.02.14-.08.14-.14Zm-8.631,2.233v.658c0,.379,0,.379.379.379h7.894a.8.8,0,0,0,.219,0c.04-.02.12-.08.12-.12.02-.3,0-.618,0-.917Zm0,2.252c0,.259.02.5,0,.718-.02.259.06.339.319.339h7.993c.06,0,.12.02.159,0,.06-.02.14-.08.14-.12.02-.3,0-.6,0-.917C24.912,15.246,22.061,15.246,19.171,15.246Zm6.558-7.116H21.264V9.146h4.465ZM23.476,18.236H22.121c-.817,0-.817,0-.777.817,0,.179.08.239.239.239h1.654c.08,0,.159-.02.239-.02Zm-4.306,1.037c1.116.1,1.136.08,1.1-.8v-.02c.02-.14-.06-.2-.2-.2H19.33a.216.216,0,0,0-.159.159Z" fill="#fff"/>
    <path id="Path_7453" data-name="Path 7453" d="M69.42,80.549a.405.405,0,0,1-.02-.1v-3.01c0-.12,0-.239.179-.239h3.189c.02,0,.02.02,0,0Q71.124,78.874,69.42,80.549Z" transform="translate(-42.435 -57.888)" fill="#fff"/>
  </g>
</svg>
