<svg xmlns="http://www.w3.org/2000/svg" width="23.986" height="23.977" viewBox="0 0 23.986 23.977">
  <g id="time" transform="translate(-9.63 -9.04)">
    <path id="Path_353" data-name="Path 353" d="M21.629,9.04a11.989,11.989,0,1,1-12,11.9A12,12,0,0,1,21.629,9.04Zm-1,9.219h0c0,1.036.006,2.071-.006,3.107a1.3,1.3,0,0,0,.414,1c.823.8,1.627,1.621,2.441,2.432s1.6,1.612,2.411,2.4a1,1,0,0,0,1.705-.462,1.072,1.072,0,0,0-.381-1.036c-1.432-1.426-2.855-2.861-4.3-4.281a.949.949,0,0,1-.306-.754c.012-1.822.021-3.644-.006-5.464a1.6,1.6,0,0,0-.309-.877.85.85,0,0,0-1.03-.213.934.934,0,0,0-.633.928C20.624,16.113,20.63,17.185,20.63,18.259Z" transform="translate(0)" fill="#ff8000"/>
  </g>
</svg>
