<svg xmlns="http://www.w3.org/2000/svg" width="28.991" height="23.977" viewBox="0 0 28.991 23.977">
  <g id="wallet-1" transform="translate(-7.643 -14.973)">
    <path id="Path_351" data-name="Path 351" d="M36.57,31.133a35.4,35.4,0,0,1-.034,4.312,4.007,4.007,0,0,1-4.093,3.494c-2.474.021-4.951.007-7.426.007-4.363,0-8.726.007-13.089,0A4.166,4.166,0,0,1,7.686,35.37a3.519,3.519,0,0,1-.041-.63q-.005-7.766,0-15.532a4.14,4.14,0,0,1,4.168-4.223q10.327-.026,20.651,0a4.144,4.144,0,0,1,4.168,4.223c0,1.174,0,2.347,0,3.579h-.52c-2.43,0-4.859-.007-7.292,0a4.17,4.17,0,0,0-2.4,7.58,4.067,4.067,0,0,0,2.416.767q3.624-.005,7.244,0C36.245,31.133,36.41,31.133,36.57,31.133Z" fill="#ff8000"/>
    <path id="Path_352" data-name="Path 352" d="M72.531,42.66v4.993c-.13.01-.257.031-.387.031q-3.6.005-7.2,0a2.525,2.525,0,0,1-2.628-1.916,2.492,2.492,0,0,1,2.063-3.059,5.585,5.585,0,0,1,.678-.044q3.485-.005,6.974,0Zm-7.213,1.694c-.226,0-.452-.017-.674,0a.82.82,0,0,0-.01,1.625,10.413,10.413,0,0,0,1.307,0,.774.774,0,0,0,.739-.808.784.784,0,0,0-.729-.821C65.738,44.337,65.526,44.354,65.318,44.354Z" transform="translate(-35.916 -18.213)" fill="#ff8000"/>
  </g>
</svg>
