<svg xmlns="http://www.w3.org/2000/svg" width="10.317" height="20" viewBox="0 0 10.317 20">
  <path id="Path_7448" data-name="Path 7448" d="M16.079,16.544H13V12.979h3.025V12.6c0-1.026,0-2.107.054-3.133a4,4,0,0,1,4.105-3.781,25.362,25.362,0,0,1,2.863.108c.216,0,.27.108.27.27V8.712c0,.216-.054.27-.27.27-.7,0-1.4,0-2.053.054a1.225,1.225,0,0,0-1.3,1.188c-.054.918,0,1.782,0,2.755h3.511c-.162,1.188-.324,2.377-.432,3.565H19.7v9.128H16.025C16.079,22.648,16.079,19.623,16.079,16.544Z" transform="translate(-13 -5.673)" fill="#fff"/>
</svg>
