<svg width="24" height="24" viewBox="0 0 24 24" fill="none" xmlns="http://www.w3.org/2000/svg">
<g id=" 24px / Google">
<g id="Group 326">
<g id="google">
<path id="Vector" d="M20.4531 10.3555H13.0117C12.6836 10.3555 12.418 10.6211 12.418 10.9492V13.3281C12.418 13.6562 12.6836 13.9219 13.0117 13.9219H17.2031C16.7461 15.1133 15.8867 16.1094 14.7969 16.7422L16.582 19.8359C19.4453 18.1797 21.1406 15.2695 21.1406 12.0156C21.1406 11.5508 21.1055 11.2187 21.0391 10.8476C20.9844 10.5625 20.7383 10.3555 20.4531 10.3555Z" fill="#167EE6"/>
<path id="Vector_2" d="M12.0195 17.4922C9.96875 17.4922 8.17969 16.3711 7.21875 14.7148L4.125 16.4961C5.69922 19.2266 8.64844 21.0625 12.0195 21.0625C13.6758 21.0625 15.2344 20.6172 16.582 19.8398V19.8359L14.7969 16.7422C13.9766 17.2187 13.0312 17.4922 12.0195 17.4922Z" fill="#12B347"/>
<path id="Vector_3" d="M16.5781 19.8398V19.8359L14.793 16.7422C13.9766 17.2148 13.0313 17.4922 12.0195 17.4922V21.0625C13.6758 21.0625 15.2344 20.6172 16.5781 19.8398Z" fill="#0F993E"/>
<path id="Vector_4" d="M6.46875 11.9414C6.46875 10.9297 6.74609 9.98436 7.21875 9.16795L4.125 7.3867C3.34375 8.72655 2.89844 10.2812 2.89844 11.9414C2.89844 13.6015 3.34375 15.1562 4.125 16.4961L7.21875 14.7148C6.74219 13.8984 6.46875 12.9531 6.46875 11.9414Z" fill="#FFD500"/>
<path id="Vector_5" d="M12.0195 6.39062C13.3555 6.39062 14.5859 6.86719 15.543 7.65625C15.7813 7.85156 16.125 7.83594 16.3398 7.62109L18.0234 5.9375C18.2695 5.69141 18.25 5.28906 17.9883 5.0625C16.3828 3.66406 14.293 2.82031 12.0195 2.82031C8.64844 2.82031 5.69922 4.65625 4.125 7.38672L7.21875 9.16797C8.17969 7.51172 9.96875 6.39062 12.0195 6.39062Z" fill="#FF4B26"/>
<path id="Vector_6" d="M15.543 7.65625C15.7812 7.85156 16.125 7.83594 16.3398 7.62109L18.0234 5.9375C18.2695 5.69141 18.25 5.28906 17.9883 5.0625C16.3828 3.66406 14.293 2.82031 12.0195 2.82031V6.39063C13.3555 6.39063 14.5859 6.86328 15.543 7.65625Z" fill="#D93F21"/>
</g>
</g>
</g>
</svg>
