<svg xmlns="http://www.w3.org/2000/svg" width="19.879" height="20" viewBox="0 0 19.879 20">
  <g id="instagram" transform="translate(-7.7 -9.225)">
    <path id="Path_7449" data-name="Path 7449" d="M17.646,29.225c-1.453-.023-2.907-.045-4.36-.114a5.779,5.779,0,0,1-3.838-1.5,5.271,5.271,0,0,1-1.635-3.452c-.068-.681-.114-1.385-.114-2.089,0-2.452,0-4.9.068-7.357a5.506,5.506,0,0,1,.931-3.02A5.125,5.125,0,0,1,12.491,9.4a23.471,23.471,0,0,1,2.521-.159c1.748-.023,3.52-.023,5.268,0a11.139,11.139,0,0,1,3.361.341,5.1,5.1,0,0,1,3.769,4.246,8.877,8.877,0,0,1,.159,1.726c.023,2.384,0,4.769,0,7.153a8.731,8.731,0,0,1-.409,2.861,5.126,5.126,0,0,1-4.383,3.474,23.893,23.893,0,0,1-2.543.159c-.863.023-1.748,0-2.611,0C17.646,29.2,17.646,29.2,17.646,29.225Zm.454-1.794c1.2-.045,2.838-.068,4.451-.2A3.323,3.323,0,0,0,25.639,24.3a15.271,15.271,0,0,0,.159-2.271c0-2.5,0-5-.091-7.494a3.285,3.285,0,0,0-2-3.043,4.536,4.536,0,0,0-1.976-.409c-1.953-.023-3.883-.068-5.836-.045q-1.5,0-3,.136a3.413,3.413,0,0,0-3.27,3.02,14.642,14.642,0,0,0-.136,2.225c0,2.452.023,4.882.091,7.335A3.452,3.452,0,0,0,10.9,26.5a3.881,3.881,0,0,0,2.407.795C14.785,27.363,16.215,27.386,18.1,27.431Z" transform="translate(0)" fill="#fff"/>
    <path id="Path_7450" data-name="Path 7450" d="M29,35.732a5.132,5.132,0,1,1,5.109,5.132A5.132,5.132,0,0,1,29,35.732Zm8.447-.023a3.327,3.327,0,1,0-3.315,3.338A3.324,3.324,0,0,0,37.447,35.709Z" transform="translate(-16.463 -16.521)" fill="#fff"/>
    <path id="Path_7451" data-name="Path 7451" d="M72.184,25.526A1.173,1.173,0,0,1,71,26.707a1.2,1.2,0,0,1-.023-2.407A1.247,1.247,0,0,1,72.184,25.526Z" transform="translate(-47.998 -11.652)" fill="#fff"/>
  </g>
</svg>
